<?xml version="1.0" encoding="UTF-8"?>
<svg width="1400" height="1000" xmlns="http://www.w3.org/2000/svg">
  <defs>
    <!-- Gradients -->
    <linearGradient id="dataSourceGrad" x1="0%" y1="0%" x2="100%" y2="100%">
      <stop offset="0%" style="stop-color:#4CAF50;stop-opacity:1" />
      <stop offset="100%" style="stop-color:#2E7D32;stop-opacity:1" />
    </linearGradient>
    
    <linearGradient id="ingestionGrad" x1="0%" y1="0%" x2="100%" y2="100%">
      <stop offset="0%" style="stop-color:#2196F3;stop-opacity:1" />
      <stop offset="100%" style="stop-color:#1565C0;stop-opacity:1" />
    </linearGradient>
    
    <linearGradient id="processingGrad" x1="0%" y1="0%" x2="100%" y2="100%">
      <stop offset="0%" style="stop-color:#FF9800;stop-opacity:1" />
      <stop offset="100%" style="stop-color:#E65100;stop-opacity:1" />
    </linearGradient>
    
    <linearGradient id="storageGrad" x1="0%" y1="0%" x2="100%" y2="100%">
      <stop offset="0%" style="stop-color:#9C27B0;stop-opacity:1" />
      <stop offset="100%" style="stop-color:#6A1B9A;stop-opacity:1" />
    </linearGradient>
    
    <linearGradient id="analyticsGrad" x1="0%" y1="0%" x2="100%" y2="100%">
      <stop offset="0%" style="stop-color:#F44336;stop-opacity:1" />
      <stop offset="100%" style="stop-color:#C62828;stop-opacity:1" />
    </linearGradient>
    
    <linearGradient id="streamingGrad" x1="0%" y1="0%" x2="100%" y2="100%">
      <stop offset="0%" style="stop-color:#00BCD4;stop-opacity:1" />
      <stop offset="100%" style="stop-color:#00695C;stop-opacity:1" />
    </linearGradient>
    
    <!-- Arrow markers -->
    <marker id="arrowhead" markerWidth="10" markerHeight="7" refX="9" refY="3.5" orient="auto">
      <polygon points="0 0, 10 3.5, 0 7" fill="#333" />
    </marker>
    
    <marker id="dataArrow" markerWidth="10" markerHeight="7" refX="9" refY="3.5" orient="auto">
      <polygon points="0 0, 10 3.5, 0 7" fill="#2196F3" />
    </marker>
    
    <marker id="streamArrow" markerWidth="10" markerHeight="7" refX="9" refY="3.5" orient="auto">
      <polygon points="0 0, 10 3.5, 0 7" fill="#00BCD4" />
    </marker>
  </defs>
  
  <!-- Background -->
  <rect width="1400" height="1000" fill="#f8f9fa" stroke="none"/>
  
  <!-- Title -->
  <text x="700" y="40" text-anchor="middle" font-family="Arial, sans-serif" font-size="24" font-weight="bold" fill="#333">
    Insurance Data Platform - Complete Data Flow Architecture
  </text>
  
  <!-- Data Sources Layer -->
  <rect x="50" y="80" width="1200" height="80" fill="none" stroke="#ddd" stroke-width="2" rx="10"/>
  <text x="650" y="105" text-anchor="middle" font-family="Arial, sans-serif" font-size="18" font-weight="bold" fill="#333">
    DATA SOURCES & INGESTION
  </text>
  
  <!-- Data Sources -->
  <rect x="80" y="120" width="120" height="30" fill="url(#dataSourceGrad)" stroke="#333" stroke-width="1" rx="5"/>
  <text x="140" y="140" text-anchor="middle" font-family="Arial, sans-serif" font-size="12" fill="white">Policy Systems</text>
  
  <rect x="220" y="120" width="120" height="30" fill="url(#dataSourceGrad)" stroke="#333" stroke-width="1" rx="5"/>
  <text x="280" y="140" text-anchor="middle" font-family="Arial, sans-serif" font-size="12" fill="white">Claims Systems</text>
  
  <rect x="360" y="120" width="120" height="30" fill="url(#dataSourceGrad)" stroke="#333" stroke-width="1" rx="5"/>
  <text x="420" y="140" text-anchor="middle" font-family="Arial, sans-serif" font-size="12" fill="white">Customer Systems</text>
  
  <rect x="500" y="120" width="120" height="30" fill="url(#dataSourceGrad)" stroke="#333" stroke-width="1" rx="5"/>
  <text x="560" y="140" text-anchor="middle" font-family="Arial, sans-serif" font-size="12" fill="white">Payment Systems</text>
  
  <rect x="640" y="120" width="120" height="30" fill="url(#dataSourceGrad)" stroke="#333" stroke-width="1" rx="5"/>
  <text x="700" y="140" text-anchor="middle" font-family="Arial, sans-serif" font-size="12" fill="white">Agent Systems</text>
  
  <rect x="780" y="120" width="120" height="30" fill="url(#dataSourceGrad)" stroke="#333" stroke-width="1" rx="5"/>
  <text x="840" y="140" text-anchor="middle" font-family="Arial, sans-serif" font-size="12" fill="white">External APIs</text>
  
  <rect x="920" y="120" width="120" height="30" fill="url(#dataSourceGrad)" stroke="#333" stroke-width="1" rx="5"/>
  <text x="980" y="140" text-anchor="middle" font-family="Arial, sans-serif" font-size="12" fill="white">IoT Devices</text>
  
  <rect x="1060" y="120" width="120" height="30" fill="url(#dataSourceGrad)" stroke="#333" stroke-width="1" rx="5"/>
  <text x="1120" y="140" text-anchor="middle" font-family="Arial, sans-serif" font-size="12" fill="white">Social Media</text>
  
  <!-- Data Ingestion Layer -->
  <rect x="50" y="200" width="1200" height="80" fill="none" stroke="#ddd" stroke-width="2" rx="10"/>
  <text x="650" y="225" text-anchor="middle" font-family="Arial, sans-serif" font-size="18" font-weight="bold" fill="#333">
    DATA INGESTION & VALIDATION
  </text>
  
  <!-- Ingestion Components -->
  <rect x="100" y="240" width="140" height="30" fill="url(#ingestionGrad)" stroke="#333" stroke-width="1" rx="5"/>
  <text x="170" y="258" text-anchor="middle" font-family="Arial, sans-serif" font-size="11" fill="white">FastAPI Ingestion</text>
  
  <rect x="280" y="240" width="140" height="30" fill="url(#ingestionGrad)" stroke="#333" stroke-width="1" rx="5"/>
  <text x="350" y="258" text-anchor="middle" font-family="Arial, sans-serif" font-size="11" fill="white">Kafka Producers</text>
  
  <rect x="460" y="240" width="140" height="30" fill="url(#ingestionGrad)" stroke="#333" stroke-width="1" rx="5"/>
  <text x="530" y="258" text-anchor="middle" font-family="Arial, sans-serif" font-size="11" fill="white">Data Quality Checks</text>
  
  <rect x="640" y="240" width="140" height="30" fill="url(#ingestionGrad)" stroke="#333" stroke-width="1" rx="5"/>
  <text x="710" y="258" text-anchor="middle" font-family="Arial, sans-serif" font-size="11" fill="white">Schema Validation</text>
  
  <rect x="820" y="240" width="140" height="30" fill="url(#ingestionGrad)" stroke="#333" stroke-width="1" rx="5"/>
  <text x="890" y="258" text-anchor="middle" font-family="Arial, sans-serif" font-size="11" fill="white">Data Enrichment</text>
  
  <rect x="1000" y="240" width="140" height="30" fill="url(#ingestionGrad)" stroke="#333" stroke-width="1" rx="5"/>
  <text x="1070" y="258" text-anchor="middle" font-family="Arial, sans-serif" font-size="11" fill="white">Batch Schedulers</text>
  
  <!-- Data Storage Layer -->
  <rect x="50" y="320" width="1200" height="80" fill="none" stroke="#ddd" stroke-width="2" rx="10"/>
  <text x="650" y="345" text-anchor="middle" font-family="Arial, sans-serif" font-size="18" font-weight="bold" fill="#333">
    DATA STORAGE & LAKEHOUSE
  </text>
  
  <!-- Storage Components -->
  <rect x="80" y="360" width="120" height="30" fill="url(#storageGrad)" stroke="#333" stroke-width="1" rx="5"/>
  <text x="140" y="378" text-anchor="middle" font-family="Arial, sans-serif" font-size="11" fill="white">PostgreSQL</text>
  <text x="140" y="390" text-anchor="middle" font-family="Arial, sans-serif" font-size="9" fill="white">(OLTP)</text>
  
  <rect x="220" y="360" width="120" height="30" fill="url(#storageGrad)" stroke="#333" stroke-width="1" rx="5"/>
  <text x="280" y="378" text-anchor="middle" font-family="Arial, sans-serif" font-size="11" fill="white">MinIO S3</text>
  <text x="280" y="390" text-anchor="middle" font-family="Arial, sans-serif" font-size="9" fill="white">(Raw Data)</text>
  
  <rect x="360" y="360" width="120" height="30" fill="url(#storageGrad)" stroke="#333" stroke-width="1" rx="5"/>
  <text x="420" y="378" text-anchor="middle" font-family="Arial, sans-serif" font-size="11" fill="white">Delta Lake</text>
  <text x="420" y="390" text-anchor="middle" font-family="Arial, sans-serif" font-size="9" fill="white">(Processed)</text>
  
  <rect x="500" y="360" width="120" height="30" fill="url(#storageGrad)" stroke="#333" stroke-width="1" rx="5"/>
  <text x="560" y="378" text-anchor="middle" font-family="Arial, sans-serif" font-size="11" fill="white">Redis Cache</text>
  <text x="560" y="390" text-anchor="middle" font-family="Arial, sans-serif" font-size="9" fill="white">(Session)</text>
  
  <rect x="640" y="360" width="120" height="30" fill="url(#storageGrad)" stroke="#333" stroke-width="1" rx="5"/>
  <text x="700" y="378" text-anchor="middle" font-family="Arial, sans-serif" font-size="11" fill="white">Kafka Topics</text>
  <text x="700" y="390" text-anchor="middle" font-family="Arial, sans-serif" font-size="9" fill="white">(Events)</text>
  
  <rect x="780" y="360" width="120" height="30" fill="url(#storageGrad)" stroke="#333" stroke-width="1" rx="5"/>
  <text x="840" y="378" text-anchor="middle" font-family="Arial, sans-serif" font-size="11" fill="white">Data Warehouse</text>
  <text x="840" y="390" text-anchor="middle" font-family="Arial, sans-serif" font-size="9" fill="white">(Analytics)</text>
  
  <rect x="920" y="360" width="120" height="30" fill="url(#storageGrad)" stroke="#333" stroke-width="1" rx="5"/>
  <text x="980" y="378" text-anchor="middle" font-family="Arial, sans-serif" font-size="11" fill="white">MongoDB</text>
  <text x="980" y="390" text-anchor="middle" font-family="Arial, sans-serif" font-size="9" fill="white">(Documents)</text>
  
  <rect x="1060" y="360" width="120" height="30" fill="url(#storageGrad)" stroke="#333" stroke-width="1" rx="5"/>
  <text x="1120" y="378" text-anchor="middle" font-family="Arial, sans-serif" font-size="11" fill="white">Time Series DB</text>
  <text x="1120" y="390" text-anchor="middle" font-family="Arial, sans-serif" font-size="9" fill="white">(Metrics)</text>
  
  <!-- Data Processing Layer -->
  <rect x="50" y="440" width="1200" height="80" fill="none" stroke="#ddd" stroke-width="2" rx="10"/>
  <text x="650" y="465" text-anchor="middle" font-family="Arial, sans-serif" font-size="18" font-weight="bold" fill="#333">
    DATA PROCESSING & TRANSFORMATION
  </text>
  
  <!-- Processing Components -->
  <rect x="80" y="480" width="140" height="30" fill="url(#processingGrad)" stroke="#333" stroke-width="1" rx="5"/>
  <text x="150" y="498" text-anchor="middle" font-family="Arial, sans-serif" font-size="11" fill="white">Apache Spark</text>
  <text x="150" y="510" text-anchor="middle" font-family="Arial, sans-serif" font-size="9" fill="white">(Batch Processing)</text>
  
  <rect x="240" y="480" width="140" height="30" fill="url(#processingGrad)" stroke="#333" stroke-width="1" rx="5"/>
  <text x="310" y="498" text-anchor="middle" font-family="Arial, sans-serif" font-size="11" fill="white">dbt Models</text>
  <text x="310" y="510" text-anchor="middle" font-family="Arial, sans-serif" font-size="9" fill="white">(Transformations)</text>
  
  <rect x="400" y="480" width="140" height="30" fill="url(#processingGrad)" stroke="#333" stroke-width="1" rx="5"/>
  <text x="470" y="498" text-anchor="middle" font-family="Arial, sans-serif" font-size="11" fill="white">Stream Processing</text>
  <text x="470" y="510" text-anchor="middle" font-family="Arial, sans-serif" font-size="9" fill="white">(Real-time)</text>
  
  <rect x="560" y="480" width="140" height="30" fill="url(#processingGrad)" stroke="#333" stroke-width="1" rx="5"/>
  <text x="630" y="498" text-anchor="middle" font-family="Arial, sans-serif" font-size="11" fill="white">Data Quality</text>
  <text x="630" y="510" text-anchor="middle" font-family="Arial, sans-serif" font-size="9" fill="white">(Validation)</text>
  
  <rect x="720" y="480" width="140" height="30" fill="url(#processingGrad)" stroke="#333" stroke-width="1" rx="5"/>
  <text x="790" y="498" text-anchor="middle" font-family="Arial, sans-serif" font-size="11" fill="white">ML Pipelines</text>
  <text x="790" y="510" text-anchor="middle" font-family="Arial, sans-serif" font-size="9" fill="white">(Predictions)</text>
  
  <rect x="880" y="480" width="140" height="30" fill="url(#processingGrad)" stroke="#333" stroke-width="1" rx="5"/>
  <text x="950" y="498" text-anchor="middle" font-family="Arial, sans-serif" font-size="11" fill="white">ETL Jobs</text>
  <text x="950" y="510" text-anchor="middle" font-family="Arial, sans-serif" font-size="9" fill="white">(Data Movement)</text>
  
  <rect x="1040" y="480" width="140" height="30" fill="url(#processingGrad)" stroke="#333" stroke-width="1" rx="5"/>
  <text x="1110" y="498" text-anchor="middle" font-family="Arial, sans-serif" font-size="11" fill="white">Data Enrichment</text>
  <text x="1110" y="510" text-anchor="middle" font-family="Arial, sans-serif" font-size="9" fill="white">(Business Logic)</text>
  
  <!-- Orchestration Layer -->
  <rect x="50" y="560" width="1200" height="80" fill="none" stroke="#ddd" stroke-width="2" rx="10"/>
  <text x="650" y="585" text-anchor="middle" font-family="Arial, sans-serif" font-size="18" font-weight="bold" fill="#333">
    WORKFLOW ORCHESTRATION & SCHEDULING
  </text>
  
  <!-- Orchestration Components -->
  <rect x="100" y="600" width="140" height="30" fill="url(#streamingGrad)" stroke="#333" stroke-width="1" rx="5"/>
  <text x="170" y="618" text-anchor="middle" font-family="Arial, sans-serif" font-size="11" fill="white">Apache Airflow</text>
  <text x="170" y="630" text-anchor="middle" font-family="Arial, sans-serif" font-size="9" fill="white">(DAGs)</text>
  
  <rect x="280" y="600" width="140" height="30" fill="url(#streamingGrad)" stroke="#333" stroke-width="1" rx="5"/>
  <text x="350" y="618" text-anchor="middle" font-family="Arial, sans-serif" font-size="11" fill="white">Kafka Streams</text>
  <text x="350" y="630" text-anchor="middle" font-family="Arial, sans-serif" font-size="9" fill="white">(Event Processing)</text>
  
  <rect x="460" y="600" width="140" height="30" fill="url(#streamingGrad)" stroke="#333" stroke-width="1" rx="5"/>
  <text x="530" y="618" text-anchor="middle" font-family="Arial, sans-serif" font-size="11" fill="white">Celery Workers</text>
  <text x="530" y="630" text-anchor="middle" font-family="Arial, sans-serif" font-size="9" fill="white">(Task Execution)</text>
  
  <rect x="640" y="600" width="140" height="30" fill="url(#streamingGrad)" stroke="#333" stroke-width="1" rx="5"/>
  <text x="710" y="618" text-anchor="middle" font-family="Arial, sans-serif" font-size="11" fill="white">Cron Jobs</text>
  <text x="710" y="630" text-anchor="middle" font-family="Arial, sans-serif" font-size="9" fill="white">(Scheduled Tasks)</text>
  
  <rect x="820" y="600" width="140" height="30" fill="url(#streamingGrad)" stroke="#333" stroke-width="1" rx="5"/>
  <text x="890" y="618" text-anchor="middle" font-family="Arial, sans-serif" font-size="11" fill="white">Event Triggers</text>
  <text x="890" y="630" text-anchor="middle" font-family="Arial, sans-serif" font-size="9" fill="white">(Real-time)</text>
  
  <rect x="1000" y="600" width="140" height="30" fill="url(#streamingGrad)" stroke="#333" stroke-width="1" rx="5"/>
  <text x="1070" y="618" text-anchor="middle" font-family="Arial, sans-serif" font-size="11" fill="white">API Endpoints</text>
  <text x="1070" y="630" text-anchor="middle" font-family="Arial, sans-serif" font-size="9" fill="white">(Triggers)</text>
  
  <!-- Analytics & Consumption Layer -->
  <rect x="50" y="680" width="1200" height="80" fill="none" stroke="#ddd" stroke-width="2" rx="10"/>
  <text x="650" y="705" text-anchor="middle" font-family="Arial, sans-serif" font-size="18" font-weight="bold" fill="#333">
    ANALYTICS, VISUALIZATION & CONSUMPTION
  </text>
  
  <!-- Analytics Components -->
  <rect x="80" y="720" width="120" height="30" fill="url(#analyticsGrad)" stroke="#333" stroke-width="1" rx="5"/>
  <text x="140" y="738" text-anchor="middle" font-family="Arial, sans-serif" font-size="11" fill="white">Grafana</text>
  <text x="140" y="750" text-anchor="middle" font-family="Arial, sans-serif" font-size="9" fill="white">(Dashboards)</text>
  
  <rect x="220" y="720" width="120" height="30" fill="url(#analyticsGrad)" stroke="#333" stroke-width="1" rx="5"/>
  <text x="280" y="738" text-anchor="middle" font-family="Arial, sans-serif" font-size="11" fill="white">Jupyter Notebooks</text>
  <text x="280" y="750" text-anchor="middle" font-family="Arial, sans-serif" font-size="9" fill="white">(Analysis)</text>
  
  <rect x="360" y="720" width="120" height="30" fill="url(#analyticsGrad)" stroke="#333" stroke-width="1" rx="5"/>
  <text x="420" y="738" text-anchor="middle" font-family="Arial, sans-serif" font-size="11" fill="white">Business Intelligence</text>
  <text x="420" y="750" text-anchor="middle" font-family="Arial, sans-serif" font-size="9" fill="white">(Reports)</text>
  
  <rect x="500" y="720" width="120" height="30" fill="url(#analyticsGrad)" stroke="#333" stroke-width="1" rx="5"/>
  <text x="560" y="738" text-anchor="middle" font-family="Arial, sans-serif" font-size="11" fill="white">ML Models</text>
  <text x="560" y="750" text-anchor="middle" font-family="Arial, sans-serif" font-size="9" fill="white">(Predictions)</text>
  
  <rect x="640" y="720" width="120" height="30" fill="url(#analyticsGrad)" stroke="#333" stroke-width="1" rx="5"/>
  <text x="700" y="738" text-anchor="middle" font-family="Arial, sans-serif" font-size="11" fill="white">Real-time APIs</text>
  <text x="700" y="750" text-anchor="middle" font-family="Arial, sans-serif" font-size="9" fill="white">(Data Services)</text>
  
  <rect x="780" y="720" width="120" height="30" fill="url(#analyticsGrad)" stroke="#333" stroke-width="1" rx="5"/>
  <text x="840" y="738" text-anchor="middle" font-family="Arial, sans-serif" font-size="11" fill="white">Data Catalogs</text>
  <text x="840" y="750" text-anchor="middle" font-family="Arial, sans-serif" font-size="9" fill="white">(Metadata)</text>
  
  <rect x="920" y="720" width="120" height="30" fill="url(#analyticsGrad)" stroke="#333" stroke-width="1" rx="5"/>
  <text x="980" y="738" text-anchor="middle" font-family="Arial, sans-serif" font-size="11" fill="white">Alerting Systems</text>
  <text x="980" y="750" text-anchor="middle" font-family="Arial, sans-serif" font-size="9" fill="white">(Monitoring)</text>
  
  <rect x="1060" y="720" width="120" height="30" fill="url(#analyticsGrad)" stroke="#333" stroke-width="1" rx="5"/>
  <text x="1120" y="738" text-anchor="middle" font-family="Arial, sans-serif" font-size="11" fill="white">Data Lineage</text>
  <text x="1120" y="750" text-anchor="middle" font-family="Arial, sans-serif" font-size="9" fill="white">(Tracking)</text>
  
  <!-- Infrastructure Layer -->
  <rect x="50" y="800" width="1200" height="80" fill="none" stroke="#ddd" stroke-width="2" rx="10"/>
  <text x="650" y="825" text-anchor="middle" font-family="Arial, sans-serif" font-size="18" font-weight="bold" fill="#333">
    INFRASTRUCTURE & DEPLOYMENT
  </text>
  
  <!-- Infrastructure Components -->
  <rect x="80" y="840" width="120" height="30" fill="#607D8B" stroke="#333" stroke-width="1" rx="5"/>
  <text x="140" y="858" text-anchor="middle" font-family="Arial, sans-serif" font-size="11" fill="white">Docker</text>
  <text x="140" y="870" text-anchor="middle" font-family="Arial, sans-serif" font-size="9" fill="white">(Containers)</text>
  
  <rect x="220" y="840" width="120" height="30" fill="#607D8B" stroke="#333" stroke-width="1" rx="5"/>
  <text x="280" y="858" text-anchor="middle" font-family="Arial, sans-serif" font-size="11" fill="white">Kubernetes</text>
  <text x="280" y="870" text-anchor="middle" font-family="Arial, sans-serif" font-size="9" fill="white">(Orchestration)</text>
  
  <rect x="360" y="840" width="120" height="30" fill="#607D8B" stroke="#333" stroke-width="1" rx="5"/>
  <text x="420" y="858" text-anchor="middle" font-family="Arial, sans-serif" font-size="11" fill="white">Terraform</text>
  <text x="420" y="870" text-anchor="middle" font-family="Arial, sans-serif" font-size="9" fill="white">(Infrastructure)</text>
  
  <rect x="500" y="840" width="120" height="30" fill="#607D8B" stroke="#333" stroke-width="1" rx="5"/>
  <text x="560" y="858" text-anchor="middle" font-family="Arial, sans-serif" font-size="11" fill="white">Prometheus</text>
  <text x="560" y="870" text-anchor="middle" font-family="Arial, sans-serif" font-size="9" fill="white">(Metrics)</text>
  
  <rect x="640" y="840" width="120" height="30" fill="#607D8B" stroke="#333" stroke-width="1" rx="5"/>
  <text x="700" y="858" text-anchor="middle" font-family="Arial, sans-serif" font-size="11" fill="white">CI/CD Pipelines</text>
  <text x="700" y="870" text-anchor="middle" font-family="Arial, sans-serif" font-size="9" fill="white">(Deployment)</text>
  
  <rect x="780" y="840" width="120" height="30" fill="#607D8B" stroke="#333" stroke-width="1" rx="5"/>
  <text x="840" y="858" text-anchor="middle" font-family="Arial, sans-serif" font-size="11" fill="white">Load Balancers</text>
  <text x="840" y="870" text-anchor="middle" font-family="Arial, sans-serif" font-size="9" fill="white">(Traffic)</text>
  
  <rect x="920" y="840" width="120" height="30" fill="#607D8B" stroke="#333" stroke-width="1" rx="5"/>
  <text x="980" y="858" text-anchor="middle" font-family="Arial, sans-serif" font-size="11" fill="white">Security</text>
  <text x="980" y="870" text-anchor="middle" font-family="Arial, sans-serif" font-size="9" fill="white">(IAM, VPC)</text>
  
  <rect x="1060" y="840" width="120" height="30" fill="#607D8B" stroke="#333" stroke-width="1" rx="5"/>
  <text x="1120" y="858" text-anchor="middle" font-family="Arial, sans-serif" font-size="11" fill="white">Backup & DR</text>
  <text x="1120" y="870" text-anchor="middle" font-family="Arial, sans-serif" font-size="9" fill="white">(Recovery)</text>
  
  <!-- Data Flow Arrows -->
  <!-- Source to Ingestion -->
  <line x1="140" y1="150" x2="170" y2="240" stroke="#4CAF50" stroke-width="2" marker-end="url(#dataArrow)"/>
  <line x1="280" y1="150" x2="350" y2="240" stroke="#4CAF50" stroke-width="2" marker-end="url(#dataArrow)"/>
  <line x1="420" y1="150" x2="530" y2="240" stroke="#4CAF50" stroke-width="2" marker-end="url(#dataArrow)"/>
  <line x1="560" y1="150" x2="710" y2="240" stroke="#4CAF50" stroke-width="2" marker-end="url(#dataArrow)"/>
  <line x1="700" y1="150" x2="890" y2="240" stroke="#4CAF50" stroke-width="2" marker-end="url(#dataArrow)"/>
  <line x1="840" y1="150" x2="1070" y2="240" stroke="#4CAF50" stroke-width="2" marker-end="url(#dataArrow)"/>
  <line x1="980" y1="150" x2="1070" y2="240" stroke="#4CAF50" stroke-width="2" marker-end="url(#dataArrow)"/>
  <line x1="1120" y1="150" x2="1070" y2="240" stroke="#4CAF50" stroke-width="2" marker-end="url(#dataArrow)"/>
  
  <!-- Ingestion to Storage -->
  <line x1="170" y1="270" x2="140" y2="360" stroke="#2196F3" stroke-width="2" marker-end="url(#dataArrow)"/>
  <line x1="350" y1="270" x2="700" y2="360" stroke="#2196F3" stroke-width="2" marker-end="url(#dataArrow)"/>
  <line x1="530" y1="270" x2="420" y2="360" stroke="#2196F3" stroke-width="2" marker-end="url(#dataArrow)"/>
  <line x1="710" y1="270" x2="560" y2="360" stroke="#2196F3" stroke-width="2" marker-end="url(#dataArrow)"/>
  <line x1="890" y1="270" x2="280" y2="360" stroke="#2196F3" stroke-width="2" marker-end="url(#dataArrow)"/>
  <line x1="1070" y1="270" x2="840" y2="360" stroke="#2196F3" stroke-width="2" marker-end="url(#dataArrow)"/>
  
  <!-- Storage to Processing -->
  <line x1="140" y1="390" x2="150" y2="480" stroke="#9C27B0" stroke-width="2" marker-end="url(#dataArrow)"/>
  <line x1="280" y1="390" x2="150" y2="480" stroke="#9C27B0" stroke-width="2" marker-end="url(#dataArrow)"/>
  <line x1="420" y1="390" x2="310" y2="480" stroke="#9C27B0" stroke-width="2" marker-end="url(#dataArrow)"/>
  <line x1="560" y1="390" x2="470" y2="480" stroke="#9C27B0" stroke-width="2" marker-end="url(#dataArrow)"/>
  <line x1="700" y1="390" x2="630" y2="480" stroke="#9C27B0" stroke-width="2" marker-end="url(#dataArrow)"/>
  <line x1="840" y1="390" x2="790" y2="480" stroke="#9C27B0" stroke-width="2" marker-end="url(#dataArrow)"/>
  <line x1="980" y1="390" x2="950" y2="480" stroke="#9C27B0" stroke-width="2" marker-end="url(#dataArrow)"/>
  <line x1="1120" y1="390" x2="1110" y2="480" stroke="#9C27B0" stroke-width="2" marker-end="url(#dataArrow)"/>
  
  <!-- Processing to Orchestration -->
  <line x1="150" y1="510" x2="170" y2="600" stroke="#FF9800" stroke-width="2" marker-end="url(#dataArrow)"/>
  <line x1="310" y1="510" x2="170" y2="600" stroke="#FF9800" stroke-width="2" marker-end="url(#dataArrow)"/>
  <line x1="470" y1="510" x2="350" y2="600" stroke="#FF9800" stroke-width="2" marker-end="url(#dataArrow)"/>
  <line x1="630" y1="510" x2="530" y2="600" stroke="#FF9800" stroke-width="2" marker-end="url(#dataArrow)"/>
  <line x1="790" y1="510" x2="710" y2="600" stroke="#FF9800" stroke-width="2" marker-end="url(#dataArrow)"/>
  <line x1="950" y1="510" x2="890" y2="600" stroke="#FF9800" stroke-width="2" marker-end="url(#dataArrow)"/>
  <line x1="1110" y1="510" x2="1070" y2="600" stroke="#FF9800" stroke-width="2" marker-end="url(#dataArrow)"/>
  
  <!-- Orchestration to Analytics -->
  <line x1="170" y1="630" x2="140" y2="720" stroke="#00BCD4" stroke-width="2" marker-end="url(#dataArrow)"/>
  <line x1="350" y1="630" x2="280" y2="720" stroke="#00BCD4" stroke-width="2" marker-end="url(#dataArrow)"/>
  <line x1="530" y1="630" x2="420" y2="720" stroke="#00BCD4" stroke-width="2" marker-end="url(#dataArrow)"/>
  <line x1="710" y1="630" x2="560" y2="720" stroke="#00BCD4" stroke-width="2" marker-end="url(#dataArrow)"/>
  <line x1="890" y1="630" x2="700" y2="720" stroke="#00BCD4" stroke-width="2" marker-end="url(#dataArrow)"/>
  <line x1="1070" y1="630" x2="840" y2="720" stroke="#00BCD4" stroke-width="2" marker-end="url(#dataArrow)"/>
  
  <!-- Real-time Streaming Path -->
  <line x1="700" y1="390" x2="350" y2="600" stroke="#00BCD4" stroke-width="3" stroke-dasharray="5,5" marker-end="url(#streamArrow)"/>
  <line x1="350" y1="630" x2="700" y2="720" stroke="#00BCD4" stroke-width="3" stroke-dasharray="5,5" marker-end="url(#streamArrow)"/>
  
  <!-- Feedback Loops -->
  <line x1="140" y1="750" x2="530" y2="240" stroke="#F44336" stroke-width="2" stroke-dasharray="3,3" marker-end="url(#arrowhead)"/>
  <line x1="280" y1="750" x2="630" y2="480" stroke="#F44336" stroke-width="2" stroke-dasharray="3,3" marker-end="url(#arrowhead)"/>
  <line x1="420" y1="750" x2="790" y2="480" stroke="#F44336" stroke-width="2" stroke-dasharray="3,3" marker-end="url(#arrowhead)"/>
  
  <!-- Legend -->
  <rect x="50" y="920" width="1300" height="60" fill="none" stroke="#ddd" stroke-width="1" rx="5"/>
  
  <circle cx="80" cy="940" r="8" fill="url(#dataSourceGrad)"/>
  <text x="100" y="945" font-family="Arial, sans-serif" font-size="12" fill="#333">Data Sources</text>
  
  <circle cx="200" cy="940" r="8" fill="url(#ingestionGrad)"/>
  <text x="220" y="945" font-family="Arial, sans-serif" font-size="12" fill="#333">Data Ingestion</text>
  
  <circle cx="320" cy="940" r="8" fill="url(#storageGrad)"/>
  <text x="340" y="945" font-family="Arial, sans-serif" font-size="12" fill="#333">Data Storage</text>
  
  <circle cx="440" cy="940" r="8" fill="url(#processingGrad)"/>
  <text x="460" y="945" font-family="Arial, sans-serif" font-size="12" fill="#333">Data Processing</text>
  
  <circle cx="560" cy="940" r="8" fill="url(#streamingGrad)"/>
  <text x="580" y="945" font-family="Arial, sans-serif" font-size="12" fill="#333">Orchestration</text>
  
  <circle cx="680" cy="940" r="8" fill="url(#analyticsGrad)"/>
  <text x="700" y="945" font-family="Arial, sans-serif" font-size="12" fill="#333">Analytics</text>
  
  <line x1="800" y1="940" x2="820" y2="940" stroke="#00BCD4" stroke-width="3" stroke-dasharray="5,5"/>
  <text x="830" y="945" font-family="Arial, sans-serif" font-size="12" fill="#333">Real-time Streams</text>
  
  <line x1="950" y1="940" x2="970" y2="940" stroke="#F44336" stroke-width="2" stroke-dasharray="3,3"/>
  <text x="980" y="945" font-family="Arial, sans-serif" font-size="12" fill="#333">Feedback Loops</text>
  
  <line x1="1100" y1="940" x2="1120" y2="940" stroke="#333" stroke-width="2"/>
  <text x="1130" y="945" font-family="Arial, sans-serif" font-size="12" fill="#333">Data Flow</text>
</svg> 